IKResults
version=1
nRows=7
nColumns=40
inDegrees=yes

Units are S.I. units (second, meters, Newtons, ...)
Angles are in degrees.

endheader
time	pelvis_tilt	pelvis_list	pelvis_rotation	pelvis_tx	pelvis_ty	pelvis_tz	hip_flexion_r	hip_adduction_r	hip_rotation_r	knee_angle_r	knee_angle_r_beta	ankle_angle_r	subtalar_angle_r	mtp_angle_r	hip_flexion_l	hip_adduction_l	hip_rotation_l	knee_angle_l	knee_angle_l_beta	ankle_angle_l	subtalar_angle_l	mtp_angle_l	lumbar_extension	lumbar_bending	lumbar_rotation	arm_flex_r	arm_add_r	arm_rot_r	elbow_flex_r	pro_sup_r	wrist_flex_r	wrist_dev_r	arm_flex_l	arm_add_l	arm_rot_l	elbow_flex_l	pro_sup_l	wrist_flex_l	wrist_dev_l
      0.44000000	    -13.62604842	     -4.56209542	     -1.42463245	      1.04075250	      0.93733926	      0.21253693	     48.74303767	      7.84295008	    -17.73554981	    -21.94716954	     -0.38305037	    -21.58778596	    -12.05774343	      7.90517001	     -9.46548747	      0.04256349	     -2.64378982	    -38.27645356	     -0.66805014	    -16.04185008	     18.41747291	     12.11611427	      4.83895225	      4.21179710	    -12.49018534	    -52.87882542	    -25.41262421	     -7.48161215	    135.80672956	     89.95437384	      0.00000000	      0.00000000	    -15.50777764	     26.73441778	    -11.68952557	    145.31148760	     89.95437384	      0.00000000	      0.00000000
      0.45000000	    -13.23177819	     -4.75461465	     -1.55695914	      1.08150701	      0.93562553	      0.21146552	     47.15413503	      8.15758281	    -18.66148006	    -21.61741495	     -0.37729507	    -22.11742310	    -10.47128236	      7.26896978	     -8.05278798	      0.44810361	     -1.71894542	    -42.59956451	     -0.74350266	    -13.79990932	     18.41103825	     11.57997635	      4.66803599	      4.69121214	    -12.20749872	    -51.49727762	    -25.65424304	     -6.83908151	    135.31899907	     89.95437384	      0.00000000	      0.00000000	    -16.35445178	     26.22459499	    -11.03899465	    144.81216796	     89.95437384	      0.00000000	      0.00000000
      0.46000000	    -12.63437557	     -4.83320536	     -1.84023904	      1.12262097	      0.93313453	      0.21032495	     45.41767292	      8.47474163	    -19.06405081	    -22.21646422	     -0.38775045	    -22.67966596	     -9.82845152	      6.78803246	     -6.82285167	      0.63035971	     -1.02799710	    -46.72973225	     -0.81558769	    -12.20788987	     18.42586154	     11.11792532	      4.24004443	      5.12615620	    -11.64283471	    -50.08891974	    -25.79662136	     -6.21131294	    134.84741272	     89.95437384	      0.00000000	      0.00000000	    -17.25995755	     25.72699934	    -10.38492285	    144.24096443	     89.95437384	      0.00000000	      0.00000000
      0.47000000	    -11.75640917	     -5.02836319	     -2.12998097	      1.16318034	      0.93022424	      0.20867101	     43.26919291	      8.95390502	    -18.89635869	    -23.15852558	     -0.40419252	    -23.03174638	    -10.13318783	      6.61134421	     -5.68319534	      0.97772740	     -0.31891454	    -50.85470797	     -0.88758209	    -10.73876966	     18.50229712	     10.72621405	      3.45604808	      5.71355701	    -10.96549950	    -48.27498352	    -26.16617115	     -5.70695341	    134.27164661	     89.95437384	      0.00000000	      0.00000000	    -18.03638569	     25.08594667	     -9.77518152	    143.42256882	     89.95437384	      0.00000000	      0.00000000
      0.48000000	    -11.18378858	     -5.31963429	     -2.64808383	      1.20391874	      0.92600711	      0.20779754	     41.19730275	     10.03275882	    -17.07860089	    -24.09289269	     -0.42050030	    -23.26507427	    -12.25448021	      7.25526130	     -4.13417729	      1.60250707	      0.66165182	    -54.87683115	     -0.95778139	     -9.31056496	     18.57395200	     10.64894023	      2.99576266	      6.43761700	    -10.13279812	    -46.49081792	    -26.52434836	     -4.79793536	    133.60587191	     89.95437384	      0.00000000	      0.00000000	    -19.22127046	     24.44108930	     -8.93750276	    142.62603068	     89.95437384	      0.00000000	      0.00000000
      0.49000000	    -10.67297326	     -5.56052297	     -3.11627884	      1.24435913	      0.92079110	      0.20647472	     39.17960650	     10.98873020	    -14.83863178	    -25.43083723	     -0.44385184	    -23.06428415	    -13.46558176	      8.15547943	     -2.30286504	      2.25163933	      1.53297768	    -58.87172588	     -1.02750545	     -7.82772674	     18.67169397	     10.57729839	      2.57406650	      7.12052805	     -9.27048305	    -44.51523511	    -27.04082916	     -4.06110767	    132.85525374	     89.95437384	      0.00000000	      0.00000000	    -20.45035237	     23.67074451	     -8.03691859	    141.66565620	     89.95437384	      0.00000000	      0.00000000
      0.50000000	     -9.95699691	     -5.94606295	     -3.45633804	      1.28486424	      0.91481207	      0.20557427	     36.91158089	     12.15852760	    -12.17763064	    -27.26306491	     -0.47583025	    -16.93780109	    -12.41391162	      7.01336928	     -0.60552139	      3.20373776	      2.18250844	    -62.68590636	     -1.09407546	     -6.32266493	     18.80428142	     10.13444964	      1.92042291	      7.88669382	     -8.20323606	    -42.71714220	    -27.15140299	     -3.37329763	    132.10659794	     89.95437384	      0.00000000	      0.00000000	    -21.54814374	     23.19264885	     -7.54025586	    140.65959781	     89.95437384	      0.00000000	      0.00000000
